<svg width="56.000000" height="56.000000" viewBox="0 0 56 56" fill="none" xmlns="http://www.w3.org/2000/svg" xmlns:xlink="http://www.w3.org/1999/xlink">
	<desc>
			Created with Pixso.
	</desc>
	<defs>
		<clipPath id="clip32_168">
			<rect id="user 1" width="32.000000" height="32.000000" transform="translate(12.000000 12.000000)" fill="white" fill-opacity="0"/>
		</clipPath>
	</defs>
	<circle id="Ellipse 134" cx="28.000000" cy="28.000000" r="28.000000" fill="#F3FBF8" fill-opacity="1.000000"/>
	<rect id="user 1" width="32.000000" height="32.000000" transform="translate(12.000000 12.000000)" fill="#FFFFFF" fill-opacity="0"/>
	<g clip-path="url(#clip32_168)">
		<path id="Vector" d="M28 12C23.43 12 19.69 15.73 19.69 20.3C19.69 24.87 23.43 28.61 28 28.61C32.57 28.61 36.31 24.87 36.31 20.3C36.31 15.73 32.57 12 28 12Z" fill="#09A66D" fill-opacity="1.000000" fill-rule="nonzero"/>
		<path id="Vector" d="M42.26 35.25C42.04 34.71 41.75 34.2 41.42 33.73C39.75 31.26 37.18 29.63 34.27 29.23C33.91 29.19 33.51 29.26 33.22 29.48C31.7 30.61 29.88 31.19 28 31.19C26.11 31.19 24.3 30.61 22.77 29.48C22.48 29.26 22.08 29.16 21.72 29.23C18.82 29.63 16.21 31.26 14.57 33.73C14.25 34.2 13.96 34.74 13.74 35.25C13.63 35.47 13.67 35.72 13.78 35.94C14.07 36.45 14.43 36.96 14.75 37.39C15.26 38.08 15.81 38.7 16.42 39.28C16.93 39.79 17.51 40.26 18.09 40.73C20.96 42.87 24.41 44 27.96 44C31.52 44 34.96 42.87 37.83 40.73C38.41 40.29 38.99 39.79 39.5 39.28C40.08 38.7 40.66 38.08 41.17 37.39C41.53 36.92 41.86 36.45 42.15 35.94C42.33 35.72 42.36 35.47 42.26 35.25Z" fill="#09A66D" fill-opacity="1.000000" fill-rule="nonzero"/>
	</g>
</svg>
