<svg width="56.000000" height="56.000000" viewBox="0 0 56 56" fill="none" xmlns="http://www.w3.org/2000/svg" xmlns:xlink="http://www.w3.org/1999/xlink">
	<desc>
			Created with Pixso.
	</desc>
	<defs>
		<clipPath id="clip32_183">
			<rect id="star 7" width="32.000000" height="32.000000" transform="translate(12.000000 12.000000)" fill="white" fill-opacity="0"/>
		</clipPath>
	</defs>
	<circle id="Ellipse 134" cx="28.000000" cy="28.000000" r="28.000000" fill="#F3FBF8" fill-opacity="1.000000"/>
	<rect id="star 7" width="32.000000" height="32.000000" transform="translate(12.000000 12.000000)" fill="#FFFFFF" fill-opacity="0"/>
	<g clip-path="url(#clip32_183)">
		<path id="Vector" d="M43.95 24.32C43.84 23.98 43.55 23.74 43.19 23.69L33.27 22.24L28.84 13.25C28.68 12.93 28.35 12.73 28 12.73C27.64 12.73 27.31 12.93 27.15 13.25L22.72 22.24L12.8 23.69C12.44 23.74 12.15 23.98 12.04 24.32C11.93 24.66 12.02 25.04 12.28 25.28L19.46 32.28L17.76 42.16C17.7 42.51 17.85 42.87 18.14 43.08C18.42 43.29 18.81 43.32 19.12 43.15L28 38.49L36.87 43.15C37 43.22 37.15 43.26 37.3 43.26C37.5 43.26 37.69 43.2 37.85 43.08C38.14 42.87 38.29 42.51 38.23 42.16L36.53 32.28L43.71 25.28C43.97 25.04 44.06 24.66 43.95 24.32Z" fill="#FED42D" fill-opacity="1.000000" fill-rule="nonzero"/>
		<path id="Vector" d="M43.95 24.32C43.84 23.98 43.55 23.74 43.19 23.69L33.27 22.24L28.84 13.25C28.68 12.93 28.35 12.73 28 12.73L28 38.49L36.87 43.15C37 43.22 37.15 43.26 37.3 43.26C37.5 43.26 37.69 43.2 37.86 43.08C38.14 42.87 38.29 42.51 38.23 42.16L36.53 32.28L43.71 25.28C43.97 25.04 44.06 24.66 43.95 24.32Z" fill="#FCBF29" fill-opacity="1.000000" fill-rule="nonzero"/>
	</g>
</svg>
