<svg width="56.000000" height="56.000000" viewBox="0 0 56 56" fill="none" xmlns="http://www.w3.org/2000/svg" xmlns:xlink="http://www.w3.org/1999/xlink">
	<desc>
			Created with Pixso.
	</desc>
	<defs>
		<clipPath id="clip32_194">
			<rect id="harvest 1" width="32.000000" height="32.000000" transform="translate(12.000000 12.000000)" fill="white" fill-opacity="0"/>
		</clipPath>
	</defs>
	<circle id="Ellipse 134" cx="28.000000" cy="28.000000" r="28.000000" fill="#F3FBF8" fill-opacity="1.000000"/>
	<rect id="harvest 1" width="32.000000" height="32.000000" transform="translate(12.000000 12.000000)" fill="#FFFFFF" fill-opacity="0"/>
	<g clip-path="url(#clip32_194)">
		<path id="Vector" d="M34.47 22L35.92 22C37.12 22 38.13 21.13 38.37 20L36.92 20C35.71 20 34.7 20.86 34.47 22Z" fill="#09A66D" fill-opacity="1.000000" fill-rule="nonzero"/>
		<path id="Vector" d="M23 17.5C23.04 17.5 23.09 17.5 23.14 17.5L23.49 13.99C23.5 13.7 23.29 13.5 23.04 13.5L22.95 13.5C22.7 13.5 22.5 13.7 22.5 13.95L22.85 17.5C22.9 17.5 22.95 17.5 23 17.5Z" fill="#09A66D" fill-opacity="1.000000" fill-rule="nonzero"/>
		<path id="Vector" d="M19 28C19 27.82 19.01 27.66 19.04 27.5L18 27.5L18 27.84C18.37 28.02 18.71 28.26 19 28.55L19 28Z" fill="#09A66D" fill-opacity="1.000000" fill-rule="nonzero"/>
		<path id="Vector" d="M18.59 15.77L20.3 18.29C20.43 18.2 20.57 18.12 20.72 18.05L19.69 15.22C19.68 15.2 19.67 15.18 19.66 15.17C19.59 15.03 19.48 14.93 19.34 14.88C19.2 14.84 19.05 14.85 18.92 14.91L18.8 14.97C18.53 15.11 18.42 15.44 18.55 15.71C18.56 15.73 18.58 15.75 18.59 15.77Z" fill="#09A66D" fill-opacity="1.000000" fill-rule="nonzero"/>
		<path id="Vector" d="M20.69 26.5L26.26 26.5L26.91 23.35C26.97 23.08 27 22.8 27 22.53C27 20.29 25.2 18.5 23 18.5C20.79 18.5 19 20.29 19 22.5C19 22.8 19.02 23.08 19.08 23.35L19.66 26.12C20.21 25.43 21.05 25 22 25L22 26C21.49 26 21.04 26.19 20.69 26.5ZM24.5 20.5L25.5 20.5L25.5 21.5L24.5 21.5L24.5 20.5ZM24.5 22.5L25.5 22.5L25.5 23.5L24.5 23.5L24.5 22.5ZM24.5 24.5L25.5 24.5L25.5 25.5L24.5 25.5L24.5 24.5Z" fill="#09A66D" fill-opacity="1.000000" fill-rule="nonzero"/>
		<path id="Vector" d="M17.5 30.5L18.94 30.5C18.71 29.36 17.7 28.5 16.5 28.5L15.05 28.5C15.28 29.63 16.29 30.5 17.5 30.5Z" fill="#09A66D" fill-opacity="1.000000" fill-rule="nonzero"/>
		<path id="Vector" d="M27.4 15.77C27.41 15.75 27.43 15.73 27.44 15.71C27.57 15.44 27.46 15.11 27.19 14.97L27.07 14.91C26.94 14.85 26.79 14.83 26.65 14.88C26.51 14.93 26.4 15.02 26.33 15.16C26.32 15.18 26.31 15.2 26.3 15.22L25.27 18.05C25.42 18.12 25.55 18.2 25.69 18.29L27.4 15.77Z" fill="#09A66D" fill-opacity="1.000000" fill-rule="nonzero"/>
		<path id="Vector" d="M26.49 36.5L40.5 36.5L40.5 33.5L25.82 33.5C26.26 34.42 26.49 35.44 26.49 36.5ZM38.5 34.5L39.5 34.5L39.5 35.5L38.5 35.5L38.5 34.5Z" fill="#09A66D" fill-opacity="1.000000" fill-rule="nonzero"/>
		<path id="Vector" d="M25.23 40.5L39 40.5C39.82 40.5 40.5 39.82 40.5 39L40.5 37.5L26.42 37.5C26.26 38.6 25.84 39.62 25.23 40.5ZM38.5 38.5L39.5 38.5L39.5 39.5L38.5 39.5L38.5 38.5Z" fill="#09A66D" fill-opacity="1.000000" fill-rule="nonzero"/>
		<path id="Vector" d="M20.07 27.5C20.02 27.66 20 27.82 20 28L20 28.5L40.5 28.5L41 28.5L42.5 28.5L42.5 27.5L20.07 27.5Z" fill="#09A66D" fill-opacity="1.000000" fill-rule="nonzero"/>
		<path id="Vector" d="M20 30.93C20.1 30.9 20.2 30.88 20.29 30.84C21.81 30.19 23.59 30.58 24.7 31.82C24.89 32.03 25.07 32.26 25.23 32.49L40.5 32.49L40.5 29.49L20 29.49L20 30.93ZM38.5 30.5L39.5 30.5L39.5 31.5L38.5 31.5L38.5 30.5Z" fill="#09A66D" fill-opacity="1.000000" fill-rule="nonzero"/>
		<path id="Vector" d="M23.96 32.49C23.14 31.58 21.8 31.28 20.68 31.76C20.47 31.85 20.23 31.91 20 31.95L20 32.89C20.49 32.71 20.96 32.32 21.14 32.14L21.85 32.85C21.73 32.97 20.67 34 19.5 34C18.32 34 17.26 32.97 17.14 32.85L17.85 32.14C18.03 32.32 18.5 32.71 19 32.89L19 31.5L17.5 31.5C17.33 31.5 17.16 31.48 17 31.46C16.3 31.51 15.56 31.9 15.01 32.51C14.03 33.61 13.5 35.02 13.5 36.5C13.5 38.14 14.15 39.68 15.34 40.82C16.52 41.96 18.08 42.55 19.73 42.49C22.82 42.37 25.35 39.86 25.49 36.77C25.56 35.18 25.02 33.66 23.96 32.49ZM19.5 41.5C16.74 41.5 14.5 39.25 14.5 36.5L15.5 36.5C15.5 38.7 17.29 40.5 19.5 40.5L19.5 41.5Z" fill="#09A66D" fill-opacity="1.000000" fill-rule="nonzero"/>
		<path id="Vector" d="M38.38 26.5C38.14 25.57 37.68 24.71 37.04 23.99C36.22 23.08 34.87 22.78 33.76 23.26C33.67 23.3 33.58 23.33 33.49 23.35L33.49 19C33.49 18.17 34.17 17.5 34.99 17.5L35.49 17.5L35.49 16.5L34.99 16.5C33.62 16.5 32.49 17.62 32.49 19L32.49 23.35C32.4 23.33 32.32 23.3 32.23 23.26C31.12 22.78 29.77 23.08 28.95 23.99C28.3 24.71 27.85 25.57 27.61 26.5L32.99 26.5L38.38 26.5ZM30.75 24.06C30.76 24.07 31.51 24.5 32.99 24.5C34.48 24.5 35.23 24.07 35.24 24.06L35.75 24.92C35.71 24.95 34.78 25.5 32.99 25.5C31.21 25.5 30.28 24.95 30.24 24.92L30.75 24.06Z" fill="#09A66D" fill-opacity="1.000000" fill-rule="nonzero"/>
	</g>
</svg>
